<svg xmlns="http://www.w3.org/2000/svg" width="2000" height="2000" viewBox="0 0 2000 2000" version="1.1"><path d="M 1027.500 452.891 C 1009.174 463.418, 956.869 520.358, 914.413 576 C 889.340 608.860, 873 633.627, 873 638.770 C 873 643.205, 898.479 665.573, 932.500 691.005 C 984.316 729.740, 1021.651 753.449, 1042.107 760.610 C 1052.478 764.240, 1057.128 763.687, 1070.366 757.251 C 1111.302 737.348, 1159.924 688.882, 1181.925 646.050 C 1187.900 634.418, 1193.260 618.775, 1195.014 607.848 C 1197.014 595.395, 1195.880 576.311, 1192.528 566 C 1186.073 546.143, 1173.817 528.363, 1153.181 508.921 C 1125.201 482.559, 1084.819 459.440, 1053.732 451.988 C 1041.517 449.059, 1033.702 449.328, 1027.500 452.891 M 1412.951 533.004 C 1390.024 536.616, 1370.597 554.855, 1364.530 578.464 C 1363.687 581.745, 1362.312 593.445, 1361.473 604.464 C 1356.405 671.074, 1348.291 721.287, 1334.480 771.500 C 1313.529 847.677, 1279.214 912.330, 1237.253 954.687 C 1202.400 989.868, 1158.167 1016.272, 1103.500 1034.526 C 1061.911 1048.413, 1022.318 1055.957, 961 1061.677 C 934.269 1064.171, 868.539 1064.178, 847.500 1061.689 C 805.047 1056.667, 771.608 1045.886, 749 1029.932 C 738.758 1022.705, 725.583 1009.188, 718.706 998.853 C 703.188 975.531, 696.732 951.851, 696.798 918.500 C 696.880 877.213, 704.692 840.725, 729.875 764 C 740.632 731.227, 741.148 729.090, 741.104 717.500 C 741.047 702.045, 737.493 692.514, 728.125 682.691 C 718.482 672.580, 707.882 668, 694.121 668 C 679.144 668, 665.985 673.611, 653.304 685.405 C 642.433 695.516, 638.039 702.003, 622.627 730.706 C 588.820 793.665, 560.845 869.614, 533.012 974 C 518.967 1026.673, 512.801 1066.510, 511.149 1115.240 C 508.118 1204.678, 522.493 1281.788, 555.331 1352.233 C 586.615 1419.344, 641.295 1475.990, 707.147 1509.506 C 759.542 1536.173, 815.212 1548.200, 886.500 1548.252 C 947.213 1548.297, 998.728 1541.011, 1051.915 1524.858 C 1159.953 1492.047, 1258.884 1418.389, 1331.285 1316.859 C 1353.168 1286.172, 1370.651 1256.624, 1390.371 1217 C 1421.176 1155.102, 1443.403 1093.809, 1461.527 1020.787 C 1480.559 944.103, 1487.252 887.663, 1489.488 785 C 1490.918 719.351, 1484.997 595.832, 1479.349 573.500 C 1475.605 558.694, 1464.901 545.855, 1450.675 539.106 C 1446.179 536.973, 1440.475 534.752, 1438 534.171 C 1431.231 532.580, 1419.196 532.020, 1412.951 533.004" stroke="none" fill="#fbfbfb" fill-rule="evenodd"/><path d="M 525.500 36.145 C 437.039 43.105, 351.203 72.368, 277.710 120.620 C 245.487 141.776, 221.667 161.234, 193.450 189.450 C 150.260 232.640, 119.657 275.294, 92.966 329.500 C 62.568 391.235, 45.173 455.013, 40.054 523.500 C 38.587 543.138, 38.590 1453.389, 40.058 1472.050 C 45.500 1541.248, 62.638 1603.908, 92.966 1665.500 C 119.657 1719.706, 150.260 1762.360, 193.450 1805.550 C 237.191 1849.290, 281.626 1880.984, 336.500 1907.583 C 396.918 1936.869, 460.354 1953.927, 527.500 1958.946 C 546.993 1960.402, 1456.007 1960.402, 1475.500 1958.946 C 1565.142 1952.246, 1650.397 1923.373, 1725.290 1874.349 C 1757.328 1853.378, 1781.273 1833.826, 1809.550 1805.550 C 1851.205 1763.895, 1881.885 1721.628, 1908.015 1669.899 C 1939.140 1608.280, 1957.576 1541.575, 1962.971 1471.050 C 1964.397 1452.413, 1964.397 542.587, 1962.971 523.950 C 1955.903 431.558, 1925.900 344.406, 1875.029 268.500 C 1842.903 220.563, 1799.357 174.759, 1752.326 139.434 C 1672.784 79.689, 1576.529 43.792, 1475.050 36.029 C 1458.347 34.751, 541.791 34.863, 525.500 36.145 M 1027.500 452.891 C 1009.174 463.418, 956.869 520.358, 914.413 576 C 889.340 608.860, 873 633.627, 873 638.770 C 873 643.205, 898.479 665.573, 932.500 691.005 C 984.316 729.740, 1021.651 753.449, 1042.107 760.610 C 1052.478 764.240, 1057.128 763.687, 1070.366 757.251 C 1111.302 737.348, 1159.924 688.882, 1181.925 646.050 C 1187.900 634.418, 1193.260 618.775, 1195.014 607.848 C 1197.014 595.395, 1195.880 576.311, 1192.528 566 C 1186.073 546.143, 1173.817 528.363, 1153.181 508.921 C 1125.201 482.559, 1084.819 459.440, 1053.732 451.988 C 1041.517 449.059, 1033.702 449.328, 1027.500 452.891 M 1412.951 533.004 C 1390.024 536.616, 1370.597 554.855, 1364.530 578.464 C 1363.687 581.745, 1362.312 593.445, 1361.473 604.464 C 1356.405 671.074, 1348.291 721.287, 1334.480 771.500 C 1313.529 847.677, 1279.214 912.330, 1237.253 954.687 C 1202.400 989.868, 1158.167 1016.272, 1103.500 1034.526 C 1061.911 1048.413, 1022.318 1055.957, 961 1061.677 C 934.269 1064.171, 868.539 1064.178, 847.500 1061.689 C 805.047 1056.667, 771.608 1045.886, 749 1029.932 C 738.758 1022.705, 725.583 1009.188, 718.706 998.853 C 703.188 975.531, 696.732 951.851, 696.798 918.500 C 696.880 877.213, 704.692 840.725, 729.875 764 C 740.632 731.227, 741.148 729.090, 741.104 717.500 C 741.047 702.045, 737.493 692.514, 728.125 682.691 C 718.482 672.580, 707.882 668, 694.121 668 C 679.144 668, 665.985 673.611, 653.304 685.405 C 642.433 695.516, 638.039 702.003, 622.627 730.706 C 588.820 793.665, 560.845 869.614, 533.012 974 C 518.967 1026.673, 512.801 1066.510, 511.149 1115.240 C 508.118 1204.678, 522.493 1281.788, 555.331 1352.233 C 586.615 1419.344, 641.295 1475.990, 707.147 1509.506 C 759.542 1536.173, 815.212 1548.200, 886.500 1548.252 C 947.213 1548.297, 998.728 1541.011, 1051.915 1524.858 C 1159.953 1492.047, 1258.884 1418.389, 1331.285 1316.859 C 1353.168 1286.172, 1370.651 1256.624, 1390.371 1217 C 1421.176 1155.102, 1443.403 1093.809, 1461.527 1020.787 C 1480.559 944.103, 1487.252 887.663, 1489.488 785 C 1490.918 719.351, 1484.997 595.832, 1479.349 573.500 C 1475.605 558.694, 1464.901 545.855, 1450.675 539.106 C 1446.179 536.973, 1440.475 534.752, 1438 534.171 C 1431.231 532.580, 1419.196 532.020, 1412.951 533.004" stroke="none" fill="#3cbccc" fill-rule="evenodd"/></svg>